<svg xmlns="http://www.w3.org/2000/svg" width="32" height="32" viewBox="0 0 32 32">
  <defs>
    <linearGradient id="heart" x1="6" y1="24" x2="24" y2="7" gradientUnits="userSpaceOnUse">
      <stop offset="0" stop-color="#0f9f57"/>
      <stop offset="0.55" stop-color="#35d47a"/>
      <stop offset="1" stop-color="#8cffb6"/>
    </linearGradient>
    <linearGradient id="vial" x1="18" y1="2" x2="27" y2="13" gradientUnits="userSpaceOnUse">
      <stop offset="0" stop-color="#89ffd0"/>
      <stop offset="1" stop-color="#16b673"/>
    </linearGradient>
  </defs>

  <circle cx="16" cy="16" r="15" fill="#263238"/>

  <path
    d="M15.8 25.8c-.5 0-1-.2-1.4-.6L7.3 18c-2.7-2.8-2.7-7.2.1-9.7 2.2-2 5.4-1.9 7.5.1l.9.9.9-.9c2.1-2 5.3-2.1 7.5-.1 2.8 2.5 2.8 6.9.1 9.7l-7.1 7.2c-.4.4-.9.6-1.4.6Z"
    fill="none"
    stroke="url(#heart)"
    stroke-width="3"
    stroke-linecap="round"
    stroke-linejoin="round"/>

  <path
    d="M22.8 3.2 28 8.4l-2 2-5.2-5.2 2-2Z"
    fill="#0d6f4a"/>
  <path
    d="M20.5 5.8 25.3 10.6 18.9 17c-.8.8-2.1.8-2.9 0l-1.3-1.3c-.8-.8-.8-2.1 0-2.9l5.8-7Z"
    fill="url(#vial)"
    stroke="#baffdc"
    stroke-width="1"
    stroke-linejoin="round"/>
  <path
    d="M16.2 13.5 19.6 16.9"
    stroke="#0b563b"
    stroke-width="1.4"
    stroke-linecap="round"/>

  <circle cx="10.7" cy="16.9" r="1.2" fill="#baffdc"/>
  <circle cx="14.3" cy="20.6" r="1.1" fill="#73f7a0"/>
</svg>
